<?xml version="1.0" encoding="UTF-8" standalone="no"?>
<!DOCTYPE svg PUBLIC "-//W3C//DTD SVG 1.1//EN" "http://www.w3.org/Graphics/SVG/1.1/DTD/svg11.dtd">
<svg width="100%" height="100%" viewBox="0 0 1800 550" version="1.1" xmlns="http://www.w3.org/2000/svg" xmlns:xlink="http://www.w3.org/1999/xlink" xml:space="preserve" xmlns:serif="http://www.serif.com/" style="fill-rule:evenodd;clip-rule:evenodd;stroke-linecap:round;stroke-linejoin:round;stroke-miterlimit:1.5;">
    <g transform="matrix(1,0,0,1,10.0939,0)">
        <g transform="matrix(0.844192,0,0,1.05289,81.3821,-318.881)">
            <g transform="matrix(350,0,0,350,539.975,696.838)">
                <path d="M0.316,-0.71L0.36,-0.71L0.66,-0L0.606,-0L0.507,-0.234L0.168,-0.234L0.069,-0L0.014,-0L0.316,-0.71ZM0.493,-0.276L0.338,-0.648L0.18,-0.276L0.493,-0.276Z" style="fill:rgb(226,187,35);fill-rule:nonzero;"/>
            </g>
            <g transform="matrix(350,0,0,350,772.139,696.838)">
                <path d="M0.073,-0.22L0.073,-0.52L0.123,-0.52L0.123,-0.227C0.123,-0.163 0.134,-0.114 0.155,-0.083C0.177,-0.051 0.21,-0.035 0.254,-0.035C0.283,-0.035 0.311,-0.041 0.338,-0.054C0.365,-0.068 0.389,-0.086 0.41,-0.11C0.431,-0.133 0.446,-0.161 0.456,-0.192L0.456,-0.52L0.506,-0.52L0.506,-0.066C0.506,-0.058 0.508,-0.052 0.511,-0.048C0.515,-0.044 0.52,-0.041 0.527,-0.041L0.527,-0C0.521,0.001 0.516,0.001 0.512,0.001C0.508,0.001 0.505,0.001 0.502,0C0.491,-0.001 0.481,-0.006 0.474,-0.015C0.466,-0.023 0.462,-0.033 0.462,-0.045L0.461,-0.123C0.439,-0.082 0.407,-0.049 0.368,-0.026C0.328,-0.002 0.285,0.01 0.239,0.01C0.185,0.01 0.143,-0.009 0.115,-0.048C0.087,-0.087 0.073,-0.144 0.073,-0.22Z" style="fill:rgb(226,187,35);fill-rule:nonzero;"/>
            </g>
            <g transform="matrix(350,0,0,350,977.6,696.838)">
                <path d="M0.324,-0.475C0.277,-0.474 0.237,-0.46 0.202,-0.433C0.167,-0.407 0.142,-0.371 0.128,-0.325L0.128,-0L0.078,-0L0.078,-0.52L0.126,-0.52L0.126,-0.392C0.144,-0.428 0.168,-0.458 0.198,-0.481C0.228,-0.504 0.259,-0.518 0.293,-0.521C0.3,-0.521 0.305,-0.522 0.311,-0.522C0.316,-0.522 0.32,-0.522 0.324,-0.522L0.324,-0.475Z" style="fill:rgb(226,187,35);fill-rule:nonzero;"/>
            </g>
            <g transform="matrix(350,0,0,350,1087.73,696.838)">
                <path d="M0.299,0.01C0.262,0.01 0.229,0.003 0.197,-0.012C0.166,-0.026 0.139,-0.046 0.116,-0.071C0.092,-0.095 0.074,-0.124 0.061,-0.157C0.048,-0.19 0.042,-0.225 0.042,-0.262C0.042,-0.311 0.053,-0.356 0.075,-0.396C0.097,-0.436 0.128,-0.468 0.166,-0.493C0.205,-0.517 0.248,-0.529 0.296,-0.529C0.345,-0.529 0.389,-0.517 0.427,-0.492C0.465,-0.468 0.496,-0.435 0.518,-0.395C0.54,-0.355 0.551,-0.31 0.551,-0.262C0.551,-0.258 0.551,-0.254 0.551,-0.25C0.551,-0.246 0.551,-0.243 0.55,-0.241L0.094,-0.241C0.097,-0.201 0.108,-0.165 0.127,-0.133C0.146,-0.101 0.171,-0.076 0.201,-0.058C0.232,-0.039 0.265,-0.03 0.301,-0.03C0.337,-0.03 0.371,-0.04 0.403,-0.058C0.435,-0.076 0.457,-0.1 0.47,-0.13L0.514,-0.118C0.504,-0.093 0.488,-0.071 0.467,-0.052C0.445,-0.033 0.42,-0.017 0.391,-0.006C0.362,0.005 0.331,0.01 0.299,0.01ZM0.092,-0.279L0.503,-0.279C0.501,-0.32 0.49,-0.356 0.471,-0.387C0.452,-0.419 0.427,-0.443 0.397,-0.461C0.367,-0.479 0.334,-0.488 0.297,-0.488C0.261,-0.488 0.227,-0.479 0.197,-0.461C0.167,-0.443 0.143,-0.419 0.124,-0.387C0.106,-0.355 0.095,-0.319 0.092,-0.279Z" style="fill:rgb(226,187,35);fill-rule:nonzero;"/>
            </g>
            <g transform="matrix(350,0,0,350,1286.74,696.838)">
                <path d="M0.238,-0L0.021,-0.52L0.074,-0.52L0.265,-0.053L0.457,-0.52L0.507,-0.52L0.29,-0L0.238,-0Z" style="fill:rgb(226,187,35);fill-rule:nonzero;"/>
            </g>
            <g transform="matrix(350,0,0,350,1467.13,696.838)">
                <path d="M0.035,-0.15C0.035,-0.181 0.044,-0.208 0.063,-0.231C0.082,-0.254 0.107,-0.272 0.14,-0.285C0.172,-0.298 0.21,-0.305 0.253,-0.305C0.28,-0.305 0.307,-0.302 0.336,-0.298C0.365,-0.293 0.391,-0.287 0.413,-0.279L0.413,-0.328C0.413,-0.376 0.399,-0.414 0.371,-0.443C0.344,-0.472 0.306,-0.486 0.257,-0.486C0.231,-0.486 0.204,-0.48 0.176,-0.47C0.148,-0.459 0.12,-0.444 0.09,-0.424L0.07,-0.46C0.103,-0.483 0.136,-0.5 0.168,-0.512C0.199,-0.523 0.231,-0.529 0.262,-0.529C0.324,-0.529 0.373,-0.511 0.409,-0.474C0.445,-0.438 0.463,-0.388 0.463,-0.324L0.463,-0.066C0.463,-0.058 0.465,-0.052 0.469,-0.048C0.472,-0.044 0.478,-0.041 0.485,-0.041L0.485,-0C0.479,0.001 0.474,0.001 0.47,0.001C0.466,0.001 0.463,0.001 0.46,0.001C0.447,-0.001 0.437,-0.006 0.431,-0.015C0.424,-0.024 0.42,-0.034 0.42,-0.044L0.419,-0.085C0.395,-0.055 0.365,-0.032 0.327,-0.015C0.289,0.002 0.25,0.01 0.208,0.01C0.176,0.01 0.146,0.003 0.12,-0.011C0.094,-0.025 0.073,-0.045 0.058,-0.069C0.043,-0.093 0.035,-0.12 0.035,-0.15ZM0.393,-0.107C0.4,-0.116 0.405,-0.124 0.408,-0.132C0.412,-0.14 0.413,-0.147 0.413,-0.154L0.413,-0.24C0.389,-0.249 0.364,-0.256 0.338,-0.261C0.312,-0.266 0.285,-0.268 0.258,-0.268C0.206,-0.268 0.164,-0.258 0.131,-0.237C0.099,-0.216 0.083,-0.188 0.083,-0.153C0.083,-0.131 0.089,-0.111 0.1,-0.092C0.111,-0.074 0.127,-0.059 0.148,-0.047C0.168,-0.036 0.192,-0.03 0.218,-0.03C0.255,-0.03 0.29,-0.037 0.321,-0.052C0.353,-0.066 0.377,-0.084 0.393,-0.107Z" style="fill:rgb(226,187,35);fill-rule:nonzero;"/>
            </g>
            <g transform="matrix(350,0,0,350,1655.16,696.838)">
                <path d="M0.503,-0L0.453,-0L0.453,-0.29C0.453,-0.357 0.444,-0.406 0.424,-0.436C0.405,-0.467 0.375,-0.483 0.334,-0.483C0.304,-0.483 0.276,-0.476 0.248,-0.462C0.219,-0.448 0.195,-0.429 0.174,-0.404C0.153,-0.38 0.137,-0.353 0.128,-0.322L0.128,-0L0.078,-0L0.078,-0.52L0.125,-0.52L0.125,-0.396C0.139,-0.423 0.158,-0.446 0.181,-0.466C0.204,-0.485 0.23,-0.501 0.259,-0.512C0.288,-0.523 0.318,-0.529 0.348,-0.529C0.377,-0.529 0.401,-0.524 0.42,-0.513C0.44,-0.503 0.456,-0.488 0.468,-0.469C0.481,-0.449 0.489,-0.425 0.495,-0.397C0.501,-0.368 0.503,-0.336 0.503,-0.299L0.503,-0Z" style="fill:rgb(226,187,35);fill-rule:nonzero;"/>
            </g>
            <g transform="matrix(350,0,0,350,1855.02,696.838)">
                <path d="M0.31,-0.025C0.307,-0.023 0.3,-0.02 0.29,-0.015C0.28,-0.01 0.267,-0.005 0.252,-0.001C0.237,0.004 0.22,0.006 0.201,0.006C0.183,0.006 0.166,0.002 0.15,-0.005C0.135,-0.012 0.122,-0.022 0.113,-0.036C0.103,-0.05 0.099,-0.067 0.099,-0.087L0.099,-0.479L0.026,-0.479L0.026,-0.52L0.099,-0.52L0.099,-0.698L0.149,-0.698L0.149,-0.52L0.27,-0.52L0.27,-0.479L0.149,-0.479L0.149,-0.099C0.15,-0.08 0.157,-0.065 0.17,-0.056C0.183,-0.046 0.197,-0.041 0.214,-0.041C0.235,-0.041 0.253,-0.045 0.268,-0.052C0.283,-0.059 0.292,-0.063 0.295,-0.065L0.31,-0.025Z" style="fill:rgb(226,187,35);fill-rule:nonzero;"/>
            </g>
            <g transform="matrix(350,0,0,350,1967.08,696.838)">
            </g>
        </g>
        <g transform="matrix(1,0,0,0.7441,3.57742,70.3126)">
            <path d="M467.681,67.294L467.681,479.678" style="fill:none;stroke:rgb(226,187,35);stroke-width:10.78px;"/>
        </g>
        <g id="Logo.svg" transform="matrix(0.315973,0,0,0.318618,211.388,261.791)">
            <g transform="matrix(1,0,0,1,-540,-540)">
                <path d="M584.21,965.14C584.54,966.84 584.96,968.52 585.44,970.17L584.21,965.14Z" style="fill:rgb(221,181,71);fill-rule:nonzero;"/>
                <path d="M488.8,552.38C539.77,514.06 593.7,480.93 653.28,457.6C705.41,437.19 759.08,423.9 815.37,422.76C820.19,422.67 824.99,422.09 829.8,421.73C801.14,419.49 772.61,420.24 744.09,420.91C712.33,421.66 680.68,423.78 649.38,429.55C587.76,440.92 530.64,464.27 476.51,495.32C471.33,498.3 469.56,498.21 468.14,491.96C463.5,471.54 458.28,451.27 453.3,430.93C420.42,296.48 387.53,162.04 354.81,27.55C353.46,22.01 351.25,19.97 345.47,20.09C327.69,20.42 309.91,20.09 292.13,20.23C269.24,20.42 252.07,33.91 246.41,56.02C243.38,67.86 240.52,79.74 237.62,91.59C191.27,280.53 144.96,469.46 98.61,658.39C66.52,789.15 34.45,919.9 2.13,1050.61C0.45,1057.42 2.39,1058.4 8.52,1058.35C35.93,1058.09 63.33,1058.12 90.74,1058.33C95.66,1058.36 98.45,1057.17 100.74,1052.37C121.65,1008.44 145.67,966.19 171.01,924.71C235.49,819.18 315.31,715.83 403.45,628.62L497.07,1009.31C500.59,1023.59 508.68,1035.78 519.58,1044.45C530.72,1053.35 544.82,1058.55 559.88,1058.55L607.07,1058.55L607.03,1058.41L654.99,1058.41C601.06,1058.41 594.02,1000.57 585.42,970.23C585.4,970.21 585.4,970.2 585.4,970.16C584.93,968.51 584.51,966.83 584.17,965.13C584.15,965.09 584.13,965.04 584.13,965.01L485.9,564.35C484.78,559.83 483.69,556.19 488.75,552.37L488.8,552.38ZM382.45,559.26C301.19,623.39 232.37,699.44 170.07,781.7C169.05,783.03 167.92,784.26 166.85,785.54C166.25,785.19 165.68,784.84 165.1,784.47C211.01,597.38 256.92,410.29 302.83,223.22C305.44,223.36 305.39,225.32 305.79,226.92C332.24,334.77 358.65,442.61 385.26,550.41C386.28,554.51 385.65,556.75 382.46,559.27L382.45,559.26Z" style="fill:rgb(227,179,42);fill-rule:nonzero;"/>
                <path d="M918.93,1058.24C906.46,1057.33 894.65,1053.48 883.11,1048.36C882.92,1048.27 882.72,1048.18 882.51,1048.1C871.7,1043.27 862.26,1036.33 854.57,1027.89C840.21,1012.16 831.89,991.26 831.89,969.18L831.89,645.76C831.71,641.85 831.57,637.93 831.43,634.02C831.24,628.64 829.17,627.92 824.63,628.01C811.23,628.24 797.81,628.08 784.41,628.1C752.37,628.12 733.88,647 733.6,679.28C733.44,697.39 733.5,715.52 733.6,733.65C733.81,769.94 734.25,806.24 733.6,842.51L733.6,895.11C733.57,895.65 733.55,896.21 733.51,896.76C732.28,918.9 730.41,940.99 726.33,962.74C726.19,963.51 726.05,964.26 725.89,965.02C719.15,997.99 711.84,1058.42 655.02,1058.42L691.51,1058.42C707.85,1058.68 724.21,1058.89 740.55,1058.42C756.17,1057.98 769.42,1054.13 780.45,1046.89C774.74,1043.82 769.48,1040.15 764.72,1035.96C769.01,1039.53 773.69,1042.69 778.7,1045.38C780.49,1046.34 782.33,1047.25 784.22,1048.09C784.41,1048.18 784.62,1048.27 784.82,1048.35C796.36,1053.46 808.17,1057.32 820.62,1058.23L824.79,1058.41L923.07,1058.41L918.92,1058.23L918.93,1058.24ZM735.36,735.16C735.57,771.45 736.01,807.75 735.36,844.02L735.36,735.16Z" style="fill:rgb(227,179,42);fill-rule:nonzero;"/>
                <path d="M1067.79,1059.75C1055.34,1058.84 1043.53,1054.99 1031.99,1049.87C1031.79,1049.78 1031.59,1049.69 1031.39,1049.6C1000.41,1035.75 980.77,1004.62 980.77,970.68L980.77,685.32C980.77,654.01 1006.15,628.63 1037.46,628.63L1078.42,628.63L1078.42,1050.68C1078.42,1057.55 1076.46,1059.68 1071.96,1059.93L1067.79,1059.75Z" style="fill:rgb(227,179,42);fill-rule:nonzero;"/>
                <path d="M735.36,844.02L735.36,735.16C735.57,771.45 736.01,807.75 735.36,844.02Z" style="fill:rgb(221,181,71);fill-rule:nonzero;"/>
                <path d="M735.36,844.02L735.36,735.16C735.57,771.45 736.01,807.75 735.36,844.02Z" style="fill:rgb(221,181,71);fill-rule:nonzero;"/>
            </g>
        </g>
    </g>
</svg>
