<?xml version="1.0" encoding="UTF-8"?>
<svg id="Layer_1" data-name="Layer 1" xmlns="http://www.w3.org/2000/svg" viewBox="0 0 1080 1080">
  <defs>
    <style>
      .cls-1 {
        fill: #ddb547;
      }

      .cls-1, .cls-2 {
        stroke-width: 0px;
      }

      .cls-2 {
        fill: #e3b32a;
      }
    </style>
  </defs>
  <path class="cls-1" d="M584.21,965.14c.33,1.7.75,3.38,1.23,5.03l-1.23-5.03Z"/>
  <path class="cls-2" d="M488.8,552.38c50.97-38.32,104.9-71.45,164.48-94.78,52.13-20.41,105.8-33.7,162.09-34.84,4.82-.09,9.62-.67,14.43-1.03-28.66-2.24-57.19-1.49-85.71-.82-31.76.75-63.41,2.87-94.71,8.64-61.62,11.37-118.74,34.72-172.87,65.77-5.18,2.98-6.95,2.89-8.37-3.36-4.64-20.42-9.86-40.69-14.84-61.03-32.88-134.45-65.77-268.89-98.49-403.38-1.35-5.54-3.56-7.58-9.34-7.46-17.78.33-35.56,0-53.34.14-22.89.19-40.06,13.68-45.72,35.79-3.03,11.84-5.89,23.72-8.79,35.57-46.35,188.94-92.66,377.87-139.01,566.8-32.09,130.76-64.16,261.51-96.48,392.22-1.68,6.81.26,7.79,6.39,7.74,27.41-.26,54.81-.23,82.22-.02,4.92.03,7.71-1.16,10-5.96,20.91-43.93,44.93-86.18,70.27-127.66,64.48-105.53,144.3-208.88,232.44-296.09l93.62,380.69c3.52,14.28,11.61,26.47,22.51,35.14,11.14,8.9,25.24,14.1,40.3,14.1h47.19l-.04-.14h47.96c-53.93,0-60.97-57.84-69.57-88.18-.02-.02-.02-.03-.02-.07-.47-1.65-.89-3.33-1.23-5.03-.02-.04-.04-.09-.04-.12l-98.23-400.66c-1.12-4.52-2.21-8.16,2.85-11.98ZM382.45,559.26c-81.26,64.13-150.08,140.18-212.38,222.44-1.02,1.33-2.15,2.56-3.22,3.84-.6-.35-1.17-.7-1.75-1.07,45.91-187.09,91.82-374.18,137.73-561.25,2.61.14,2.56,2.1,2.96,3.7,26.45,107.85,52.86,215.69,79.47,323.49,1.02,4.1.39,6.34-2.8,8.86Z"/>
  <path class="cls-2" d="M918.93,1058.24c-12.47-.91-24.28-4.76-35.82-9.88-.19-.09-.39-.18-.6-.26-10.81-4.83-20.25-11.77-27.94-20.21-14.36-15.73-22.68-36.63-22.68-58.71v-323.42c-.18-3.91-.32-7.83-.46-11.74-.19-5.38-2.26-6.1-6.8-6.01-13.4.23-26.82.07-40.22.09-32.04.02-50.53,18.9-50.81,51.18-.16,18.11-.1,36.24,0,54.37.21,36.29.65,72.59,0,108.86v52.6c-.03.54-.05,1.1-.09,1.65-1.23,22.14-3.1,44.23-7.18,65.98-.14.77-.28,1.52-.44,2.28-6.74,32.97-14.05,93.4-70.87,93.4h36.49c16.34.26,32.7.47,49.04,0,15.62-.44,28.87-4.29,39.9-11.53-5.71-3.07-10.97-6.74-15.73-10.93,4.29,3.57,8.97,6.73,13.98,9.42,1.79.96,3.63,1.87,5.52,2.71.19.09.4.18.6.26,11.54,5.11,23.35,8.97,35.8,9.88l4.17.18h98.28l-4.15-.18ZM735.36,735.16c.21,36.29.65,72.59,0,108.86v-108.86Z"/>
  <path class="cls-2" d="M1067.79,1059.75c-12.45-.91-24.26-4.76-35.8-9.88-.2-.09-.4-.18-.6-.27-30.98-13.85-50.62-44.98-50.62-78.92v-285.36c0-31.31,25.38-56.69,56.69-56.69h40.96v422.05c0,6.87-1.96,9-6.46,9.25h0l-4.17-.18Z"/>
  <path class="cls-1" d="M735.36,844.02v-108.86c.21,36.29.65,72.59,0,108.86Z"/>
  <path class="cls-1" d="M735.36,844.02v-108.86c.21,36.29.65,72.59,0,108.86Z"/>
</svg>